<svg id="visual" viewBox="0 0 960 540" width="960" height="540" xmlns="http://www.w3.org/2000/svg" xmlns:xlink="http://www.w3.org/1999/xlink" version="1.1"><rect x="0" y="0" width="960" height="540" fill="#121212"></rect><path d="M0 396L137 395L274 355L411 371L549 364L686 349L823 368L960 328L960 541L823 541L686 541L549 541L411 541L274 541L137 541L0 541Z" fill="#047857"></path><path d="M0 388L137 444L274 442L411 416L549 387L686 386L823 366L960 437L960 541L823 541L686 541L549 541L411 541L274 541L137 541L0 541Z" fill="#005c44"></path><path d="M0 455L137 469L274 451L411 423L549 432L686 472L823 425L960 440L960 541L823 541L686 541L549 541L411 541L274 541L137 541L0 541Z" fill="#004231"></path><path d="M0 477L137 471L274 487L411 480L549 506L686 510L823 493L960 462L960 541L823 541L686 541L549 541L411 541L274 541L137 541L0 541Z" fill="#01291e"></path></svg>